<?xml version="1.0" encoding="UTF-8"?>
<svg version="1.1" xmlns="http://www.w3.org/2000/svg" width="716" height="492">
<path d="M0 0 C236.28 0 472.56 0 716 0 C716 162.36 716 324.72 716 492 C479.72 492 243.44 492 0 492 C0 329.64 0 167.28 0 0 Z " fill="#010000" transform="translate(0,0)"/>
<path d="M0 0 C6.27 0 12.54 0 19 0 C19 82.5 19 165 19 250 C12.73 250 6.46 250 0 250 C0 167.5 0 85 0 0 Z " fill="#E63427" transform="translate(352,125)"/>
<path d="M0 0 C41.14705882 0 41.14705882 0 49.4375 5.125 C56.18008413 12.68985049 56.69501836 20.24459582 56.3203125 30.01953125 C55.81581194 36.28887355 54.64476491 40.01784742 50.5625 44.9375 C48.21324366 46.82836486 46.94887986 47.67234668 44 48 C44 48.66 44 49.32 44 50 C44.721875 50.04125 45.44375 50.0825 46.1875 50.125 C50.20024334 51.37340904 51.59881991 53.62536853 54 57 C56.07701211 61.13683265 56.3226494 64.98249166 56.37890625 69.53125 C56.39590073 70.24478638 56.4128952 70.95832275 56.43040466 71.69348145 C56.48327126 73.96223216 56.5236946 76.23096878 56.5625 78.5 C56.60660619 80.76893792 56.65346339 83.03774394 56.70530701 85.30651855 C56.73695061 86.71437593 56.7639343 88.12234827 56.78553772 89.53039551 C56.86267348 93.21379354 57.26870266 96.34351331 58 100 C51.73 100 45.46 100 39 100 C37.27777094 94.83331281 36.76001057 92.04757357 36.76171875 86.80859375 C36.74630972 85.43814102 36.73000688 84.0676981 36.71289062 82.69726562 C36.69641469 80.56203346 36.68753291 78.42752718 36.69458008 76.29223633 C36.6972056 74.21353956 36.66906805 72.13700109 36.63671875 70.05859375 C36.63373779 68.82423584 36.63075684 67.58987793 36.62768555 66.31811523 C36.1921695 62.92286934 36.1921695 62.92286934 34.21020508 60.12133789 C29.96470285 56.94680847 29.96470285 56.94680847 19 57 C19 71.19 19 85.38 19 100 C12.73 100 6.46 100 0 100 C0 67 0 34 0 0 Z " fill="#FAFAFA" transform="translate(154,182)"/>
<path d="M0 0 C5.94 0 11.88 0 18 0 C18.02505615 2.70952881 18.0501123 5.41905762 18.07592773 8.21069336 C18.15956783 17.18332822 18.24823176 26.15590843 18.33933926 35.12847042 C18.39440061 40.56617741 18.44779283 46.00388991 18.49731445 51.44165039 C18.54520678 56.69365937 18.59755683 61.94560706 18.65294075 67.19754219 C18.67325217 69.19687935 18.69198292 71.19623323 18.70907402 73.19560051 C18.73336819 76.00538013 18.76338588 78.81504661 18.79467773 81.62475586 C18.80331093 82.85259544 18.80331093 82.85259544 18.81211853 84.10523987 C18.87954817 89.46485536 19.3378583 94.68015694 20 100 C14.39 100 8.78 100 3 100 C2.34 98.02 1.68 96.04 1 94 C-0.299375 95.175625 -0.299375 95.175625 -1.625 96.375 C-7.32692477 101.03421168 -12.95911821 101.44501528 -20.15625 101.3203125 C-24.01645101 100.88550964 -26.13343829 99.57990554 -29 97 C-29.7425 96.360625 -30.485 95.72125 -31.25 95.0625 C-34.35281222 91.40561417 -35.2473803 87.78850226 -35.29052734 83.0612793 C-35.30328705 82.10646164 -35.31604675 81.15164398 -35.32919312 80.16789246 C-35.33253159 78.63652397 -35.33253159 78.63652397 -35.3359375 77.07421875 C-35.3425943 76.01266068 -35.3492511 74.9511026 -35.35610962 73.8573761 C-35.36622192 71.61400074 -35.37092708 69.37059539 -35.37060547 67.12719727 C-35.37497133 63.70993971 -35.41128734 60.29398172 -35.44921875 56.87695312 C-35.45508878 54.69271273 -35.45905692 52.50846623 -35.4609375 50.32421875 C-35.48249405 48.8019593 -35.48249405 48.8019593 -35.50448608 47.24894714 C-35.46457309 40.99420217 -34.62790104 36.20096316 -31 31 C-26.3243219 26.55240376 -22.65217611 25.8031963 -16.3125 25.625 C-15.13300781 25.57601562 -13.95351563 25.52703125 -12.73828125 25.4765625 C-9 26 -9 26 -1 31 C-0.67 20.77 -0.34 10.54 0 0 Z " fill="#FCFCFC" transform="translate(321,182)"/>
<path d="M0 0 C6.74384577 3.84599521 10.34204536 8.99832904 12.625 16.3125 C13.07521448 20.35622591 13.00720309 24.31326492 12.875 28.375 C12.7925 31.984375 12.71 35.59375 12.625 39.3125 C0.745 39.3125 -11.135 39.3125 -23.375 39.3125 C-22.93546545 48.90051871 -22.93546545 48.90051871 -21.375 58.3125 C-19.79370971 58.53581199 -18.20978911 58.74054644 -16.625 58.9375 C-15.74328125 59.05351562 -14.8615625 59.16953125 -13.953125 59.2890625 C-11.05276478 59.31542941 -9.69391606 59.05168704 -7.375 57.3125 C-6.46339907 55.14041412 -6.46339907 55.14041412 -6.125 52.6875 C-5.8775 51.24375 -5.63 49.8 -5.375 48.3125 C0.565 48.3125 6.505 48.3125 12.625 48.3125 C12.625 55.6284414 11.9202732 60.55229964 7.046875 66.11328125 C0.60468975 71.96058003 -5.71971563 73.86511612 -14.25 73.75 C-15.04575439 73.74097656 -15.84150879 73.73195313 -16.66137695 73.72265625 C-23.82588046 73.51113631 -28.98879963 72.39682979 -34.390625 67.4765625 C-40.45024072 61.04745802 -41.68561749 55.07821783 -41.67578125 46.4765625 C-41.68006638 45.63837982 -41.6843515 44.80019714 -41.68876648 43.93661499 C-41.69448833 42.16999206 -41.69502592 40.40334558 -41.69067383 38.63671875 C-41.68751788 35.9527103 -41.71098536 33.26980964 -41.73632812 30.5859375 C-41.73860195 28.86198054 -41.73930423 27.13802065 -41.73828125 25.4140625 C-41.747491 24.62109772 -41.75670074 23.82813293 -41.76618958 23.01113892 C-41.71162584 16.34624665 -40.46476928 10.79763103 -36.0625 5.5625 C-26.39262519 -2.53320915 -12.04474093 -5.08009482 0 0 Z " fill="#F9F9F9" transform="translate(262.375,209.6875)"/>
<path d="M0 0 C0.79245117 0.00829834 1.58490234 0.01659668 2.40136719 0.02514648 C9.5147721 0.22986451 15.52800484 1.26234979 21.046875 6.05078125 C27.63778708 13.12816542 27.45267747 20.58683754 27.3125 29.8125 C27.27125 33.64875 27.23 37.485 27.1875 41.4375 C15.6375 41.4375 4.0875 41.4375 -7.8125 41.4375 C-8.64298653 56.48917565 -8.64298653 56.48917565 -2.8125 61.4375 C1.2587401 61.80100358 4.21097311 61.43163172 8.1875 60.4375 C8.8475 57.1375 9.5075 53.8375 10.1875 50.4375 C15.7975 50.4375 21.4075 50.4375 27.1875 50.4375 C27.1875 57.78121968 27.09508333 61.53246485 23.1875 67.4375 C15.84806058 74.76132359 7.953519 75.879563 -1.9753418 75.87353516 C-9.35493291 75.69756203 -14.91138699 73.99412332 -20.44921875 68.9453125 C-25.82808929 62.9961892 -26.1387412 57.22943279 -26.18359375 49.60546875 C-26.19262222 48.6548909 -26.2016507 47.70431305 -26.21095276 46.72492981 C-26.22543412 44.71696104 -26.23433673 42.70894531 -26.23803711 40.70092773 C-26.24992026 37.645503 -26.29911557 34.59210752 -26.34960938 31.53710938 C-26.35907612 29.58073896 -26.36630995 27.62435622 -26.37109375 25.66796875 C-26.40039223 24.30976265 -26.40039223 24.30976265 -26.43028259 22.92411804 C-26.38533307 16.53290734 -24.83697301 12.4175814 -20.8125 7.4375 C-14.71222976 1.49776318 -8.22440738 -0.11069306 0 0 Z " fill="#FAFAFA" transform="translate(507.8125,207.5625)"/>
<path d="M0 0 C5.10665678 3.82999259 7.82304189 7.7668888 9.5 13.875 C9.74050903 16.83639526 9.74050903 16.83639526 9.72705078 19.97216797 C9.72689972 21.15293915 9.72674866 22.33371033 9.72659302 23.55026245 C9.71627045 24.80984772 9.70594788 26.06943298 9.6953125 27.3671875 C9.6924826 28.66826447 9.68965271 29.96934143 9.68673706 31.30984497 C9.67913675 34.7523582 9.65951973 38.19470003 9.6373291 41.637146 C9.61679261 45.15651125 9.60771873 48.67590447 9.59765625 52.1953125 C9.57626999 59.08861875 9.54111765 65.98178348 9.5 72.875 C3.56 72.875 -2.38 72.875 -8.5 72.875 C-8.5093457 71.19954102 -8.51869141 69.52408203 -8.52832031 67.79785156 C-8.56815996 61.5879446 -8.63390302 55.3785362 -8.70751953 49.16894531 C-8.73798196 46.4801281 -8.75864566 43.79149902 -8.77099609 41.10253906 C-8.79237658 37.23979803 -8.83900507 33.37806552 -8.890625 29.515625 C-8.89185364 28.3113385 -8.89308228 27.107052 -8.89434814 25.86627197 C-8.91406677 24.74541199 -8.9337854 23.624552 -8.95410156 22.46972656 C-8.96298401 21.48377502 -8.97186646 20.49782349 -8.98101807 19.48199463 C-9.64528622 16.14518576 -10.84518722 14.9433325 -13.5 12.875 C-16.95238782 12.37152678 -18.76782014 12.45943846 -21.8125 14.1875 C-24.77192376 17.14692376 -24.64049186 20.19942984 -24.70532227 24.17260742 C-24.72526749 25.25350143 -24.74521271 26.33439545 -24.76576233 27.44804382 C-24.79083107 29.19659416 -24.79083107 29.19659416 -24.81640625 30.98046875 C-24.83718735 32.17481033 -24.85796844 33.36915192 -24.87937927 34.59968567 C-24.94484276 38.42056443 -25.0037451 42.24151276 -25.0625 46.0625 C-25.10568824 48.65039786 -25.14930263 51.23828865 -25.19335938 53.82617188 C-25.30052095 60.17570968 -25.40179764 66.52531756 -25.5 72.875 C-31.44 72.875 -37.38 72.875 -43.5 72.875 C-43.5 48.785 -43.5 24.695 -43.5 -0.125 C-38.22 -0.125 -32.94 -0.125 -27.5 -0.125 C-27.17 1.855 -26.84 3.835 -26.5 5.875 C-26.02949219 5.45347656 -25.55898438 5.03195313 -25.07421875 4.59765625 C-24.45160156 4.04980469 -23.82898438 3.50195312 -23.1875 2.9375 C-22.57261719 2.39222656 -21.95773437 1.84695312 -21.32421875 1.28515625 C-15.80046497 -2.98481187 -6.28315791 -2.01958647 0 0 Z " fill="#FCFCFC" transform="translate(460.5,209.125)"/>
<path d="M0 0 C5.94 0 11.88 0 18 0 C18 24.09 18 48.18 18 73 C12.06 73 6.12 73 0 73 C0 48.91 0 24.82 0 0 Z " fill="#FDFDFD" transform="translate(385,209)"/>
<path d="M0 0 C3.38939556 2.13679285 4.72582557 3.1774767 6 7 C6.12041376 9.51573543 6.18804884 12.00297284 6.203125 14.51953125 C6.20882507 15.25572189 6.21452515 15.99191254 6.22039795 16.75041199 C6.22983756 18.30795866 6.23637781 19.8655252 6.24023438 21.4230957 C6.24992231 23.79349086 6.28094675 26.16301203 6.3125 28.53320312 C6.31903241 30.04947404 6.32428195 31.56575113 6.328125 33.08203125 C6.3404718 33.78536087 6.3528186 34.48869049 6.36553955 35.21333313 C6.34466698 39.87712682 5.43906118 43.0322262 3 47 C-0.13801189 49.38056074 -3.15012836 49.48123395 -7 49 C-9.15429688 47.55273438 -9.15429688 47.55273438 -11 45 C-11.59711167 41.92852631 -11.56051177 38.90236029 -11.53125 35.78125 C-11.5350769 34.88635864 -11.53890381 33.99146729 -11.54284668 33.06945801 C-11.5455652 31.17992018 -11.53820816 29.29034468 -11.52148438 27.40087891 C-11.50007323 24.5098881 -11.52128734 21.62138233 -11.546875 18.73046875 C-11.54423171 16.89322369 -11.53910671 15.05598017 -11.53125 13.21875 C-11.53934692 12.35511841 -11.54744385 11.49148682 -11.55578613 10.60168457 C-11.4628351 4.64777029 -11.4628351 4.64777029 -9.18164062 1.45507812 C-5.95269175 -0.69851804 -3.79559563 -0.53271518 0 0 Z " fill="#040404" transform="translate(315,221)"/>
<path d="M0 0 C0.99 0 1.98 0 3 0 C3.33 5.94 3.66 11.88 4 18 C5.65 18.33 7.3 18.66 9 19 C9.33 12.73 9.66 6.46 10 0 C12.5575 -0.04125 15.115 -0.0825 17.75 -0.125 C18.54889648 -0.14320801 19.34779297 -0.16141602 20.17089844 -0.18017578 C23.95261758 -0.20970558 26.80684118 -0.13437458 30 2 C30.05404449 4.75026417 30.09369306 7.49946203 30.125 10.25 C30.15013672 11.41595703 30.15013672 11.41595703 30.17578125 12.60546875 C30.18222656 13.35957031 30.18867187 14.11367188 30.1953125 14.890625 C30.20578613 15.58188477 30.21625977 16.27314453 30.22705078 16.98535156 C30 19 30 19 28 23 C24.04 23 20.08 23 16 23 C16 21.68 16 20.36 16 19 C15.34 19 14.68 19 14 19 C13.67 19.99 13.34 20.98 13 22 C10.77109005 23.11445498 9.46944894 23.16480286 7 23.1875 C5.948125 23.20876953 5.948125 23.20876953 4.875 23.23046875 C3 23 3 23 1 21 C0.09118984 18.2567198 -0.11945003 15.76740395 -0.09765625 12.890625 C-0.09443359 12.13652344 -0.09121094 11.38242187 -0.08789062 10.60546875 C-0.07951172 9.82816406 -0.07113281 9.05085938 -0.0625 8.25 C-0.05798828 7.45722656 -0.05347656 6.66445313 -0.04882812 5.84765625 C-0.03708565 3.89840492 -0.01915146 1.94919262 0 0 Z " fill="#110000" transform="translate(514,296)"/>
<path d="M0 0 C12 0 12 0 16 2 C18.7723042 5.62259559 18.40390908 10.06694826 18.4375 14.4375 C18.47037109 15.18837891 18.50324219 15.93925781 18.53710938 16.71289062 C18.57801852 20.94140845 18.36821679 22.53219871 15.66015625 25.97265625 C10.17510817 30.15289113 7.87978862 29 0 29 C0 19.43 0 9.86 0 0 Z " fill="#050505" transform="translate(173,196)"/>
<path d="M0 0 C3.5959475 2.79684805 4.96830687 4.66346937 6.125 9.125 C6.2958169 14.07869001 4.90184865 16.90755343 1.625 20.5625 C-2.10099275 22.42549637 -5.58324355 23.24020664 -9.75 22.75 C-13.18727328 20.77308958 -15.96676604 18.31646791 -17.75 14.75 C-18.14771327 9.97744077 -18.22453429 7.66517328 -16 3.375 C-11.57885108 -1.78300707 -6.39311336 -2.90596062 0 0 Z " fill="#2C0303" transform="translate(563.75,185.25)"/>
<path d="M0 0 C4.62 0 9.24 0 14 0 C14 1.32 14 2.64 14 4 C12.68 4 11.36 4 10 4 C10 10.27 10 16.54 10 23 C8.35 23 6.7 23 5 23 C5 17.06 5 11.12 5 5 C3.35 5 1.7 5 0 5 C-0.33 5.66 -0.66 6.32 -1 7 C-4.62528568 7.20140476 -6.86501708 6.85776765 -10 5 C-8.15588678 9.33908833 -8.15588678 9.33908833 -4.8125 12.5 C-3 14 -3 14 -2.5625 17.0625 C-2.706875 18.031875 -2.85125 19.00125 -3 20 C-6.46923881 22.31282587 -7.92205575 22.42478586 -12 22 C-13.875 20.6875 -13.875 20.6875 -15 19 C-15 18.01 -15 17.02 -15 16 C-14.01 16 -13.02 16 -12 16 C-11.67 16.99 -11.34 17.98 -11 19 C-9.68 19 -8.36 19 -7 19 C-7.11341534 16.59122743 -7.11341534 16.59122743 -8 14 C-10.41055254 12.33700035 -10.41055254 12.33700035 -13 11 C-15 8 -15 8 -14.75 5.4375 C-14 3 -14 3 -12 1 C-7.44755354 0.65641914 -4.11418186 1.00524516 0 3 C0 2.01 0 1.02 0 0 Z " fill="#2E0202" transform="translate(496,295)"/>
<path d="M0 0 C5.94 0 11.88 0 18 0 C18 5.28 18 10.56 18 16 C12.06 16 6.12 16 0 16 C0 10.72 0 5.44 0 0 Z " fill="#FEFEFE" transform="translate(385,184)"/>
<path d="M0 0 C4.6 2.2 4.6 2.2 6 5 C6.1377685 8.67015275 6.04271961 12.32611348 6 16 C0.06 16 -5.88 16 -12 16 C-12.60621242 5.93687375 -12.60621242 5.93687375 -9.9375 1.8125 C-6.24802064 -0.46398727 -4.27062538 -0.61008934 0 0 Z " fill="#0C0C0C" transform="translate(251,221)"/>
<path d="M0 0 C2.5625 1.9375 2.5625 1.9375 4 5 C4.30755516 8.40917074 4.18335348 11.56212223 4 15 C-1.94 15 -7.88 15 -14 15 C-14.60448489 3.87747806 -14.60448489 3.87747806 -12.0625 0.1875 C-7.76619435 -1.47841443 -4.38598697 -1.37471233 0 0 Z " fill="#0D0D0D" transform="translate(514,222)"/>
<path d="M0 0 C2.47385671 2.47385671 2.28571102 3.97504228 2.32226562 7.36132812 C2.31904297 8.04646484 2.31582031 8.73160156 2.3125 9.4375 C2.32861328 10.11876953 2.34472656 10.80003906 2.36132812 11.50195312 C2.36419877 14.4328782 2.35122881 16.48856155 0.6640625 18.9453125 C-2.00007292 20.63384903 -3.92934782 20.4386646 -7 20 C-10.11592937 17.71235566 -10.91844171 16.51393719 -11.53125 12.65234375 C-11.5209375 11.42644531 -11.510625 10.20054687 -11.5 8.9375 C-11.5103125 7.70902344 -11.520625 6.48054688 -11.53125 5.21484375 C-11 2 -11 2 -9.1953125 0.0546875 C-5.8898204 -1.5333603 -3.48618709 -0.83926726 0 0 Z " fill="#C33B31" transform="translate(568,297)"/>
<path d="M0 0 C9 0 9 0 12 2 C12.08071788 4.79224073 12.14035408 7.58216566 12.1875 10.375 C12.22520508 11.56609375 12.22520508 11.56609375 12.26367188 12.78125 C12.29004405 14.85586148 12.15486462 16.93100865 12 19 C9 21 9 21 0 21 C0 14.07 0 7.14 0 0 Z " fill="#B5372E" transform="translate(532,296)"/>
<path d="M0 0 C0.99 0 1.98 0 3 0 C3.33 5.94 3.66 11.88 4 18 C5.65 18.33 7.3 18.66 9 19 C9.33 12.73 9.66 6.46 10 0 C10.99 0 11.98 0 13 0 C13.08086376 2.93804996 13.1404283 5.87388075 13.1875 8.8125 C13.21263672 9.64587891 13.23777344 10.47925781 13.26367188 11.33789062 C13.27817383 12.54155273 13.27817383 12.54155273 13.29296875 13.76953125 C13.31653442 14.87711792 13.31653442 14.87711792 13.34057617 16.00708008 C12.90086093 18.58012344 12.05869971 19.43869615 10 21 C6.52850537 21.51703111 4.7534419 21.51266514 1.82421875 19.51953125 C-0.84406047 15.83422055 -0.44079055 12.6748732 -0.25 8.25 C-0.23195313 7.45722656 -0.21390625 6.66445313 -0.1953125 5.84765625 C-0.14833082 3.89791652 -0.07659044 1.94880122 0 0 Z " fill="#BA3A32" transform="translate(514,296)"/>
<path d="M0 0 C3.5959475 2.79684805 4.96830687 4.66346937 6.125 9.125 C6.2958169 14.07869001 4.90184865 16.90755343 1.625 20.5625 C-2.10099275 22.42549637 -5.58324355 23.24020664 -9.75 22.75 C-13.18727328 20.77308958 -15.96676604 18.31646791 -17.75 14.75 C-18.14771327 9.97744077 -18.22453429 7.66517328 -16 3.375 C-11.57885108 -1.78300707 -6.39311336 -2.90596062 0 0 Z M-14.75 4.75 C-16.35825168 7.96650336 -16.21109077 11.26174812 -15.75 14.75 C-14.21452173 17.75697829 -13.13113648 19.28577667 -9.87890625 20.37890625 C-6.36295591 21.0103151 -4.26553939 20.96767219 -0.9375 19.5625 C2.17755031 17.07172908 2.17755031 17.07172908 4.25 13.75 C4.53854134 9.15031159 4.1084693 5.81658307 1.1875 2.1875 C-4.98000279 -0.83063966 -9.87009753 -0.2777783 -14.75 4.75 Z " fill="#B03C35" transform="translate(563.75,185.25)"/>
<path d="M0 0 C1.8125 0.125 1.8125 0.125 4 1 C5.75 4.0625 5.75 4.0625 7 7 C8.74271938 4.702779 10.39911152 2.40133271 12 0 C12.66 0 13.32 0 14 0 C13.690625 0.86625 13.38125 1.7325 13.0625 2.625 C10.63822609 10.32563477 11.33497765 13.92163065 15 21 C13.68 21 12.36 21 11 21 C8 15.25 8 15.25 8 13 C7.34 13 6.68 13 6 13 C5.690625 13.94875 5.38125 14.8975 5.0625 15.875 C4 19 4 19 3 21 C2.01 21 1.02 21 0 21 C1.05875074 17.59687262 2.00902154 14.98646769 4 12 C3.63840198 7.66082378 1.77001996 3.92482686 0 0 Z " fill="#BA3830" transform="translate(454,296)"/>
<path d="M0 0 C0.99 0 1.98 0 3 0 C4.32 4.95 5.64 9.9 7 15 C8.19524226 10.44120293 8.19524226 10.44120293 9.36254883 5.87524414 C9.81516279 4.22177919 10.40570154 2.60798479 11 1 C11.99 0.67 12.98 0.34 14 0 C13.29843593 7.15595346 11.69214979 14.01855181 10 21 C8.35 21 6.7 21 5 21 C4.16193384 18.06377536 3.32937556 15.12617933 2.5 12.1875 C2.26152344 11.35412109 2.02304687 10.52074219 1.77734375 9.66210938 C1.43896484 8.45844727 1.43896484 8.45844727 1.09375 7.23046875 C0.88427734 6.49207764 0.67480469 5.75368652 0.45898438 4.99291992 C0 3 0 3 0 0 Z " fill="#BD382E" transform="translate(420,296)"/>
<path d="M0 0 C2.97 0.495 2.97 0.495 6 1 C6.02685095 3.47923801 6.04676547 5.9581884 6.0625 8.4375 C6.07087891 9.14455078 6.07925781 9.85160156 6.08789062 10.58007812 C6.09653588 12.38693559 6.05220011 14.19387603 6 16 C5 17 5 17 2.5 17.125 C0 17 0 17 -1 16 C-1.09932392 13.68925832 -1.12969618 11.37537058 -1.125 9.0625 C-1.12757813 7.79535156 -1.13015625 6.52820313 -1.1328125 5.22265625 C-1 2 -1 2 0 0 Z " fill="#070000" transform="translate(561,298)"/>
<path d="M0 0 C3.5 0.25 3.5 0.25 5.5 2.25 C5.5 3.24 5.5 4.23 5.5 5.25 C4.9225 4.92 4.345 4.59 3.75 4.25 C1.30116138 2.97924102 1.30116138 2.97924102 -2.5 3.25 C-2.53872687 5.58538907 -2.53872687 5.58538907 -1.5 8.25 C0.13874989 9.53487986 0.13874989 9.53487986 2.0625 10.6875 C3.96484375 11.921875 3.96484375 11.921875 5.5 13.25 C6.125 16.4375 6.125 16.4375 5.5 19.25 C2.03076119 21.56282587 0.57794425 21.67478586 -3.5 21.25 C-5.375 19.9375 -5.375 19.9375 -6.5 18.25 C-6.5 17.26 -6.5 16.27 -6.5 15.25 C-5.51 15.25 -4.52 15.25 -3.5 15.25 C-3.17 16.24 -2.84 17.23 -2.5 18.25 C-1.18 18.25 0.14 18.25 1.5 18.25 C1.38658466 15.84122743 1.38658466 15.84122743 0.5 13.25 C-1.91055254 11.58700035 -1.91055254 11.58700035 -4.5 10.25 C-6.5 7.25 -6.5 7.25 -6.25 4.6875 C-5.03772664 0.74761157 -4.12711402 0.29479386 0 0 Z " fill="#BD3A32" transform="translate(487.5,295.75)"/>
<path d="M0 0 C0.66 0 1.32 0 2 0 C2 1.98 2 3.96 2 6 C2.99 6 3.98 6 5 6 C5 4.02 5 2.04 5 0 C5.66 0 6.32 0 7 0 C7.02690104 2.79173055 7.04679053 5.58320348 7.0625 8.375 C7.07087891 9.1690625 7.07925781 9.963125 7.08789062 10.78125 C7.11328125 16.7734375 7.11328125 16.7734375 6 19 C4.33388095 19.042721 2.66617115 19.04063832 1 19 C0 18 0 18 -0.11352539 16.23413086 C-0.10828857 15.48526611 -0.10305176 14.73640137 -0.09765625 13.96484375 C-0.09443359 13.15595703 -0.09121094 12.34707031 -0.08789062 11.51367188 C-0.07951172 10.66353516 -0.07113281 9.81339844 -0.0625 8.9375 C-0.05798828 8.08349609 -0.05347656 7.22949219 -0.04882812 6.34960938 C-0.03700373 4.23304337 -0.01906769 2.11651315 0 0 Z " fill="#260201" transform="translate(517,296)"/>
<path d="M0 0 C1.65 0 3.3 0 5 0 C6.75559942 1.75559942 6.13221919 4.03582442 6.13671875 6.37109375 C6.13285156 7.07363281 6.12898437 7.77617187 6.125 8.5 C6.12886719 9.20253906 6.13273438 9.90507812 6.13671875 10.62890625 C6.12661378 15.87338622 6.12661378 15.87338622 5 17 C3.35 17 1.7 17 0 17 C0 11.39 0 5.78 0 0 Z " fill="#1C0100" transform="translate(535,298)"/>
<path d="M0 0 C3.63 0 7.26 0 11 0 C11 0.66 11 1.32 11 2 C8.36 2 5.72 2 3 2 C3 4.64 3 7.28 3 10 C4.98 10 6.96 10 9 10 C9 10.66 9 11.32 9 12 C7.02 12 5.04 12 3 12 C3 14.97 3 17.94 3 21 C2.01 21 1.02 21 0 21 C0 14.07 0 7.14 0 0 Z " fill="#C13B32" transform="translate(439,296)"/>
<path d="M0 0 C1.258125 -0.04125 2.51625 -0.0825 3.8125 -0.125 C4.52019531 -0.14820313 5.22789062 -0.17140625 5.95703125 -0.1953125 C8 0 8 0 11 2 C11.546875 4.0234375 11.546875 4.0234375 11.75 6.375 C11.82734375 7.14585937 11.9046875 7.91671875 11.984375 8.7109375 C11.99997875 10.9968866 11.65703398 12.81984178 11 15 C9.68 15.33 8.36 15.66 7 16 C6.67 12.37 6.34 8.74 6 5 C3.69 4.34 1.38 3.68 -1 3 C-0.67 2.01 -0.34 1.02 0 0 Z " fill="#270302" transform="translate(554,186)"/>
<path d="M0 0 C1.32 0 2.64 0 4 0 C4 6.93 4 13.86 4 21 C2.68 21 1.36 21 0 21 C0 14.07 0 7.14 0 0 Z " fill="#C54137" transform="translate(549,296)"/>
<path d="M0 0 C4.29 0 8.58 0 13 0 C13 0.66 13 1.32 13 2 C11.35 2 9.7 2 8 2 C8 8.27 8 14.54 8 21 C7.01 21 6.02 21 5 21 C5 14.73 5 8.46 5 2 C3.35 2 1.7 2 0 2 C0 1.34 0 0.68 0 0 Z " fill="#BF3932" transform="translate(497,296)"/>
<path d="M0 0 C0.66 0 1.32 0 2 0 C2 1.32 2 2.64 2 4 C2.66 4 3.32 4 4 4 C4.33 8.95 4.66 13.9 5 19 C4.01 19.33 3.02 19.66 2 20 C1.67 20.66 1.34 21.32 1 22 C-0.65 22 -2.3 22 -4 22 C-2.68 21.67 -1.36 21.34 0 21 C0 14.07 0 7.14 0 0 Z " fill="#210000" transform="translate(553,296)"/>
<path d="M0 0 C1.76923828 0.01353516 1.76923828 0.01353516 3.57421875 0.02734375 C4.47785156 0.03894531 5.38148438 0.05054688 6.3125 0.0625 C6.3125 0.3925 6.3125 0.7225 6.3125 1.0625 C2.6825 1.0625 -0.9475 1.0625 -4.6875 1.0625 C-4.6875 7.9925 -4.6875 14.9225 -4.6875 22.0625 C-5.3475 22.0625 -6.0075 22.0625 -6.6875 22.0625 C-6.6875 15.7925 -6.6875 9.5225 -6.6875 3.0625 C-7.3475 3.0625 -8.0075 3.0625 -8.6875 3.0625 C-8.625625 4.155625 -8.56375 5.24875 -8.5 6.375 C-8.6875 10.0625 -8.6875 10.0625 -10.1875 12 C-10.6825 12.350625 -11.1775 12.70125 -11.6875 13.0625 C-10.53455882 3.18014706 -10.53455882 3.18014706 -9.6875 1.0625 C-6.26517028 -0.07827657 -3.60076783 -0.03565117 0 0 Z " fill="#230000" transform="translate(443.6875,294.9375)"/>
<path d="M0 0 C1.98 0 3.96 0 6 0 C6.98248524 4.0527516 7.08159574 7.83861737 7 12 C6.34 12 5.68 12 5 12 C5 10.35 5 8.7 5 7 C4.01 7 3.02 7 2 7 C2 8.65 2 10.3 2 12 C1.34 12 0.68 12 0 12 C0 8.04 0 4.08 0 0 Z " fill="#AB352D" transform="translate(554,190)"/>
<path d="M0 0 C0.66 0.33 1.32 0.66 2 1 C2 1.66 2 2.32 2 3 C2.78375 3.28875 3.5675 3.5775 4.375 3.875 C7 5 7 5 9 7 C8.625 9.625 8.625 9.625 8 12 C6.35 11.67 4.7 11.34 3 11 C3 10.01 3 9.02 3 8 C2.01 8 1.02 8 0 8 C0.34444881 10.47266765 0.34444881 10.47266765 1 13 C1.66 13.33 2.32 13.66 3 14 C2.01 14 1.02 14 0 14 C-0.33 11.69 -0.66 9.38 -1 7 C-0.01 6.67 0.98 6.34 2 6 C1.34 4.02 0.68 2.04 0 0 Z " fill="#280302" transform="translate(481,303)"/>
<path d="M0 0 C1.32 0 2.64 0 4 0 C4.33 6.27 4.66 12.54 5 19 C4.34 19 3.68 19 3 19 C2.67 13.72 2.34 8.44 2 3 C1.01 3.99 0.02 4.98 -1 6 C-1.66 6 -2.32 6 -3 6 C-3 11.61 -3 17.22 -3 23 C-4.65 23 -6.3 23 -8 23 C-6.68 22.67 -5.36 22.34 -4 22 C-4 15.73 -4 9.46 -4 3 C-2.68 3 -1.36 3 0 3 C0 2.01 0 1.02 0 0 Z " fill="#170001" transform="translate(510,296)"/>
<path d="M0 0 C0.99 0 1.98 0 3 0 C3 5.94 3 11.88 3 18 C2.01 18.33 1.02 18.66 0 19 C0 12.73 0 6.46 0 0 Z " fill="#B1322C" transform="translate(524,296)"/>
<path d="M0 0 C0.33 0 0.66 0 1 0 C1 6.93 1 13.86 1 21 C4.63 20.67 8.26 20.34 12 20 C11.67 20.99 11.34 21.98 11 23 C7.04 23 3.08 23 -1 23 C-0.67 15.41 -0.34 7.82 0 0 Z " fill="#330806" transform="translate(531,296)"/>
<path d="M0 0 C2.97 0.495 2.97 0.495 6 1 C6.02685095 3.47923801 6.04676547 5.9581884 6.0625 8.4375 C6.07087891 9.14455078 6.07925781 9.85160156 6.08789062 10.58007812 C6.09653588 12.38693559 6.05220011 14.19387603 6 16 C5 17 5 17 2.5 17.125 C0 17 0 17 -1 16 C-1.09932392 13.68925832 -1.12969618 11.37537058 -1.125 9.0625 C-1.12757813 7.79535156 -1.13015625 6.52820313 -1.1328125 5.22265625 C-1 2 -1 2 0 0 Z M0 2 C0 6.29 0 10.58 0 15 C1.32 15 2.64 15 4 15 C5.26237731 12.47524538 5.09856404 10.68799534 5.0625 7.875 C5.05347656 6.96492188 5.04445313 6.05484375 5.03515625 5.1171875 C5.02355469 4.41851562 5.01195312 3.71984375 5 3 C3.35 2.67 1.7 2.34 0 2 Z " fill="#480402" transform="translate(561,298)"/>
<path d="M0 0 C0.99 0.33 1.98 0.66 3 1 C3.10806144 3.91765891 3.18732877 6.83131125 3.25 9.75 C3.30027344 10.9875 3.30027344 10.9875 3.3515625 12.25 C3.45112665 18.42297754 3.45112665 18.42297754 0.984375 21.578125 C0.32953125 22.04734375 -0.3253125 22.5165625 -1 23 C-3.97 22.01 -6.94 21.02 -10 20 C-9.67 19.34 -9.34 18.68 -9 18 C-8.34 18.33 -7.68 18.66 -7 19 C-4 19.25 -4 19.25 -1 19 C1.3705255 17.06798095 1.3705255 17.06798095 1.23046875 13.59375 C1.22647854 12.22909733 1.21172843 10.8644434 1.1875 9.5 C1.18685547 8.81035156 1.18621094 8.12070312 1.18554688 7.41015625 C1.20365609 3.57764806 1.20365609 3.57764806 0 0 Z " fill="#240301" transform="translate(568,297)"/>
<path d="M0 0 C0.99 0 1.98 0 3 0 C4.31157516 2.62315032 3.89649988 4.23033436 3.5625 7.125 C3.46066406 8.03507813 3.35882812 8.94515625 3.25390625 9.8828125 C3.12822266 10.93082031 3.12822266 10.93082031 3 12 C2.34 12 1.68 12 1 12 C0.03929566 9.11788698 -0.10581883 7.30149956 -0.0625 4.3125 C-0.05347656 3.50425781 -0.04445313 2.69601563 -0.03515625 1.86328125 C-0.02355469 1.24839844 -0.01195312 0.63351563 0 0 Z " fill="#070103" transform="translate(562,189)"/>
<path d="M0 0 C0.66 0 1.32 0 2 0 C2 3.96 2 7.92 2 12 C1.34 12 0.68 12 0 12 C0 10.68 0 9.36 0 8 C-0.66 8 -1.32 8 -2 8 C-2.125 5.125 -2.125 5.125 -2 2 C-1.34 1.34 -0.68 0.68 0 0 Z " fill="#040103" transform="translate(551,190)"/>
<path d="M0 0 C0.33 0.66 0.66 1.32 1 2 C-1.01822917 1.96744792 -3.03645833 1.93489583 -5.0546875 1.90234375 C-7.08185404 1.87350758 -7.08185404 1.87350758 -9 3 C-9.46954261 6.04581269 -9.46954261 6.04581269 -9.625 9.5625 C-9.69976563 10.76003906 -9.77453125 11.95757812 -9.8515625 13.19140625 C-9.90054688 14.11824219 -9.94953125 15.04507812 -10 16 C-10.33 16 -10.66 16 -11 16 C-11.10794277 13.73020335 -11.18556176 11.45894804 -11.25 9.1875 C-11.29640625 7.92292969 -11.3428125 6.65835937 -11.390625 5.35546875 C-11 2 -11 2 -9.21484375 0.0390625 C-5.90010057 -1.5160022 -3.47712644 -0.85288007 0 0 Z " fill="#AF3B36" transform="translate(568,297)"/>
<path d="M0 0 C2.97 0.495 2.97 0.495 6 1 C5.67 2.65 5.34 4.3 5 6 C3.35 5.67 1.7 5.34 0 5 C0 3.35 0 1.7 0 0 Z " fill="#190001" transform="translate(484,309)"/>
<path d="M0 0 C0.99 0 1.98 0 3 0 C3.33 0.99 3.66 1.98 4 3 C6.97 3.495 6.97 3.495 10 4 C9.67 4.66 9.34 5.32 9 6 C3.52173913 6.36521739 3.52173913 6.36521739 1.125 4.6875 C0 3 0 3 0 0 Z " fill="#B63F3B" transform="translate(481,311)"/>
<path d="M0 0 C0.66 0 1.32 0 2 0 C2 3.63 2 7.26 2 11 C1.01 11.495 1.01 11.495 0 12 C-0.66 11.34 -1.32 10.68 -2 10 C-1.67 9.67 -1.34 9.34 -1 9 C-0.76807135 7.48530552 -0.58784762 5.96245438 -0.4375 4.4375 C-0.35371094 3.61121094 -0.26992188 2.78492188 -0.18359375 1.93359375 C-0.12300781 1.29550781 -0.06242188 0.65742188 0 0 Z " fill="#CB3931" transform="translate(542,304)"/>
<path d="M0 0 C3.02419525 0.58803797 6.01758453 1.22678118 9 2 C9 2.66 9 3.32 9 4 C6.23723823 3.47731534 3.6739124 2.89130413 1 2 C1.33 3.65 1.66 5.3 2 7 C1.01 6.34 0.02 5.68 -1 5 C-0.67 3.35 -0.34 1.7 0 0 Z " fill="#4C0B0A" transform="translate(485,298)"/>
<path d="M0 0 C2.92879371 0.62759865 5.36095629 1.58622659 8 3 C6.68 3.33 5.36 3.66 4 4 C4.33 4.99 4.66 5.98 5 7 C3.0625 6.3125 3.0625 6.3125 1 5 C0.25 2.375 0.25 2.375 0 0 Z " fill="#130101" transform="translate(486,300)"/>
<path d="M0 0 C0.66 0 1.32 0 2 0 C0.90931332 3.77545388 0.0916909 6.47043472 -3 9 C-3.33 8.34 -3.66 7.68 -4 7 C-3.22265625 5.2734375 -3.22265625 5.2734375 -2.0625 3.375 C-1.381875 2.26125 -0.70125 1.1475 0 0 Z " fill="#B83C39" transform="translate(466,296)"/>
<path d="M0 0 C3.375 -0.125 3.375 -0.125 7 0 C9 2 9 2 9 5 C8.1646875 4.566875 8.1646875 4.566875 7.3125 4.125 C4.91505355 2.9586747 2.48403061 1.9660119 0 1 C0 0.67 0 0.34 0 0 Z " fill="#AF352F" transform="translate(484,296)"/>
<path d="M0 0 C0.66 0 1.32 0 2 0 C0.98823563 3.40320742 0.35156418 4.75725331 -2.625 6.8125 C-3.40875 7.204375 -4.1925 7.59625 -5 8 C-5.66 7.34 -6.32 6.68 -7 6 C-6.21625 5.566875 -5.4325 5.13375 -4.625 4.6875 C-1.78301625 3.10779753 -1.78301625 3.10779753 0 0 Z " fill="#A03C35" transform="translate(567,199)"/>
<path d="M0 0 C4.455 0.99 4.455 0.99 9 2 C9 2.66 9 3.32 9 4 C6.69 4 4.38 4 2 4 C1.34 2.68 0.68 1.36 0 0 Z " fill="#2E0302" transform="translate(515,315)"/>
<path d="M0 0 C0.33 0 0.66 0 1 0 C1.08131463 1.43655854 1.13933559 2.8744483 1.1875 4.3125 C1.23970703 5.51326172 1.23970703 5.51326172 1.29296875 6.73828125 C0.93801608 9.47851584 0.10633718 10.29171079 -2 12 C-1 3.42857143 -1 3.42857143 0 0 Z " fill="#2E0303" transform="translate(434,296)"/>
<path d="M0 0 C0.66 0 1.32 0 2 0 C1.8125 2.875 1.8125 2.875 1 6 C-1.5625 7.375 -1.5625 7.375 -4 8 C-2.68 5.36 -1.36 2.72 0 0 Z " fill="#260200" transform="translate(569,198)"/>
<path d="M0 0 C0.33 0 0.66 0 1 0 C0.67 3.3 0.34 6.6 0 10 C-0.66 9.34 -1.32 8.68 -2 8 C-1.69347955 5.0574037 -1.32728846 2.65457692 0 0 Z " fill="#290201" transform="translate(466,300)"/>
</svg>
